# xmcd
#
# Track frame offsets: 
#        150
#        16166
#        45365
#        60562
#        77724
#        90329
#        109166
#        123871
#        151022
#        180278
#        194710
#        209845
#        225562
#        242388
#        263876
#
# Disc length: 3777 seconds
#
# Revision: 0
# Processed by: cddbd v1.5.2PL0 Copyright (c) Steve Scherf et al.
# Submitted via: ExactAudioCopy v0.95b3
#
DISCID=b20ebf0f
DTITLE=Various  - Monterey Pop Festival 1967 Vol. 6  FLAC
DYEAR=1900
DGENRE=
TTITLE0=Killing Floor - Jimi Hendrix Experience 
TTITLE1=Like A Rolling Stone - Jimi Hendrix Experience
TTITLE2=Foxy Lady - Jimi Hendrix Experience
TTITLE3=Rock Me Baby - Jimi Hendrix Experience
TTITLE4=Can You See Me - Jimi Hendrix Experience
TTITLE5=Hey Joe - Jimi Hendrix Experience
TTITLE6=Purple Haze - Jimi Hendrix Experience
TTITLE7=Wind Cries Mary - Jimi Hendrix Experience
TTITLE8=Wild Thing - Jimi Hendrix Experience
TTITLE9=Shake - Otis Redding With The Bar-Keys
TTITLE10=Respect - Otis Redding With The Bar-Keys
TTITLE11=I've Been Loving You Too Long - Otis Redding With The Bar-Key
TTITLE11=s
TTITLE12=Satisfaction - Otis Redding With The Bar-Keys
TTITLE13=Try A Little Tenderness - Otis Redding With The Bar-Keys
TTITLE14=Interviews
EXTD=
EXTT0=
EXTT1=
EXTT2=
EXTT3=
EXTT4=
EXTT5=
EXTT6=
EXTT7=
EXTT8=
EXTT9=
EXTT10=
EXTT11=
EXTT12=
EXTT13=
EXTT14=
PLAYORDER=
